<mxfile host="drawio-plugin" modified="2024-05-23T18:29:03.846Z" agent="Mozilla/5.0 (Windows NT 10.0; Win64; x64) AppleWebKit/537.36 (KHTML, like Gecko) Chrome/122.0.0.0 Safari/537.36" etag="ZmupSDFykaYl8n_yrY5m" version="22.1.22" type="embed" pages="2">
  <diagram name="ClinicWave Local Development and Deployment Workflow" id="g2H6kbWNZ8GhJzK7uyzH">
    <mxGraphModel dx="959" dy="740" grid="1" gridSize="10" guides="1" tooltips="1" connect="1" arrows="1" fold="1" page="1" pageScale="1" pageWidth="850" pageHeight="1100" math="0" shadow="0">
      <root>
        <mxCell id="0" />
        <mxCell id="1" parent="0" />
        <mxCell id="QdudeDyhw6--TSKGOu7p-23" value="" style="edgeStyle=orthogonalEdgeStyle;rounded=0;orthogonalLoop=1;jettySize=auto;html=1;" parent="1" source="QdudeDyhw6--TSKGOu7p-20" target="QdudeDyhw6--TSKGOu7p-21" edge="1">
          <mxGeometry relative="1" as="geometry" />
        </mxCell>
        <mxCell id="QdudeDyhw6--TSKGOu7p-20" value="" style="sketch=0;outlineConnect=0;fontColor=#232F3E;gradientColor=none;fillColor=#232F3D;strokeColor=none;dashed=0;verticalLabelPosition=bottom;verticalAlign=top;align=center;html=1;fontSize=12;fontStyle=0;aspect=fixed;pointerEvents=1;shape=mxgraph.aws4.source_code;" parent="1" vertex="1">
          <mxGeometry x="146.5" y="237" width="57" height="78" as="geometry" />
        </mxCell>
        <mxCell id="QdudeDyhw6--TSKGOu7p-24" value="" style="edgeStyle=orthogonalEdgeStyle;rounded=0;orthogonalLoop=1;jettySize=auto;html=1;" parent="1" source="QdudeDyhw6--TSKGOu7p-21" target="QdudeDyhw6--TSKGOu7p-22" edge="1">
          <mxGeometry relative="1" as="geometry" />
        </mxCell>
        <mxCell id="QdudeDyhw6--TSKGOu7p-21" value="" style="shape=image;html=1;verticalAlign=top;verticalLabelPosition=bottom;labelBackgroundColor=#ffffff;imageAspect=0;aspect=fixed;image=https://cdn1.iconfinder.com/data/icons/picons-social/57/github_rounded-128.png" parent="1" vertex="1">
          <mxGeometry x="320" y="232" width="88" height="88" as="geometry" />
        </mxCell>
        <mxCell id="QdudeDyhw6--TSKGOu7p-31" value="" style="edgeStyle=orthogonalEdgeStyle;rounded=0;orthogonalLoop=1;jettySize=auto;html=1;" parent="1" source="QdudeDyhw6--TSKGOu7p-22" target="QdudeDyhw6--TSKGOu7p-29" edge="1">
          <mxGeometry relative="1" as="geometry" />
        </mxCell>
        <mxCell id="QdudeDyhw6--TSKGOu7p-22" value="" style="shape=image;imageAspect=0;aspect=fixed;verticalLabelPosition=bottom;verticalAlign=top;image=https://sg.mirror.servanamanaged.com/jenkins/art/jenkins-logo/logo.svg;" parent="1" vertex="1">
          <mxGeometry x="520" y="230" width="66.64" height="92" as="geometry" />
        </mxCell>
        <mxCell id="QdudeDyhw6--TSKGOu7p-27" value="Source Code" style="text;html=1;align=center;verticalAlign=middle;resizable=0;points=[];autosize=1;strokeColor=none;fillColor=none;" parent="1" vertex="1">
          <mxGeometry x="130" y="347" width="90" height="30" as="geometry" />
        </mxCell>
        <mxCell id="QdudeDyhw6--TSKGOu7p-54" style="edgeStyle=orthogonalEdgeStyle;rounded=0;orthogonalLoop=1;jettySize=auto;html=1;entryX=0;entryY=0.5;entryDx=0;entryDy=0;" parent="1" source="QdudeDyhw6--TSKGOu7p-29" target="QdudeDyhw6--TSKGOu7p-35" edge="1">
          <mxGeometry relative="1" as="geometry" />
        </mxCell>
        <mxCell id="QdudeDyhw6--TSKGOu7p-29" value="" style="image;sketch=0;aspect=fixed;html=1;points=[];align=center;fontSize=12;image=img/lib/mscae/Docker.svg;" parent="1" vertex="1">
          <mxGeometry x="720" y="241.25" width="84.76" height="69.5" as="geometry" />
        </mxCell>
        <mxCell id="QdudeDyhw6--TSKGOu7p-30" value="Docker Image" style="text;html=1;align=center;verticalAlign=middle;resizable=0;points=[];autosize=1;strokeColor=none;fillColor=none;" parent="1" vertex="1">
          <mxGeometry x="712.38" y="347" width="100" height="30" as="geometry" />
        </mxCell>
        <mxCell id="QdudeDyhw6--TSKGOu7p-32" value="Read Dockerfile, build the application and&amp;nbsp;&lt;div&gt;create Docker image&lt;/div&gt;" style="text;html=1;align=center;verticalAlign=middle;resizable=0;points=[];autosize=1;strokeColor=none;fillColor=none;" parent="1" vertex="1">
          <mxGeometry x="428.32" y="347" width="250" height="40" as="geometry" />
        </mxCell>
        <mxCell id="QdudeDyhw6--TSKGOu7p-35" value="" style="shape=image;imageAspect=0;aspect=fixed;verticalLabelPosition=bottom;verticalAlign=top;image=https://upload.wikimedia.org/wikipedia/commons/2/24/Ansible_logo.svg;" parent="1" vertex="1">
          <mxGeometry x="1020" y="231" width="73.15" height="90" as="geometry" />
        </mxCell>
        <mxCell id="QdudeDyhw6--TSKGOu7p-36" value="" style="outlineConnect=0;dashed=0;verticalLabelPosition=bottom;verticalAlign=top;align=center;html=1;shape=mxgraph.aws3.ec2;fillColor=#F58534;gradientColor=none;" parent="1" vertex="1">
          <mxGeometry x="1300" y="230" width="76.5" height="93" as="geometry" />
        </mxCell>
        <mxCell id="QdudeDyhw6--TSKGOu7p-42" value="Push&lt;span style=&quot;background-color: initial;&quot;&gt;&amp;nbsp;Docker image to Ansible&lt;/span&gt;" style="text;html=1;align=center;verticalAlign=middle;resizable=0;points=[];autosize=1;strokeColor=none;fillColor=none;" parent="1" vertex="1">
          <mxGeometry x="820" y="230" width="180" height="30" as="geometry" />
        </mxCell>
        <mxCell id="QdudeDyhw6--TSKGOu7p-44" value="Read image and connect to Amazon EC2" style="text;html=1;align=center;verticalAlign=middle;resizable=0;points=[];autosize=1;strokeColor=none;fillColor=none;" parent="1" vertex="1">
          <mxGeometry x="936.5800000000002" y="347" width="240" height="30" as="geometry" />
        </mxCell>
        <mxCell id="QdudeDyhw6--TSKGOu7p-45" value="Amazon EC2" style="text;html=1;align=center;verticalAlign=middle;resizable=0;points=[];autosize=1;strokeColor=none;fillColor=none;" parent="1" vertex="1">
          <mxGeometry x="1293.2499999999998" y="347" width="90" height="30" as="geometry" />
        </mxCell>
        <mxCell id="QdudeDyhw6--TSKGOu7p-47" value="Run the image as a container" style="text;html=1;align=center;verticalAlign=middle;resizable=0;points=[];autosize=1;strokeColor=none;fillColor=none;" parent="1" vertex="1">
          <mxGeometry x="1248.2499999999998" y="377" width="180" height="30" as="geometry" />
        </mxCell>
        <mxCell id="QdudeDyhw6--TSKGOu7p-48" value="GitHub" style="text;html=1;align=center;verticalAlign=middle;resizable=0;points=[];autosize=1;strokeColor=none;fillColor=none;" parent="1" vertex="1">
          <mxGeometry x="334" y="347" width="60" height="30" as="geometry" />
        </mxCell>
        <mxCell id="QdudeDyhw6--TSKGOu7p-55" style="edgeStyle=orthogonalEdgeStyle;rounded=0;orthogonalLoop=1;jettySize=auto;html=1;entryX=0;entryY=0.5;entryDx=0;entryDy=0;entryPerimeter=0;" parent="1" source="QdudeDyhw6--TSKGOu7p-35" target="QdudeDyhw6--TSKGOu7p-36" edge="1">
          <mxGeometry relative="1" as="geometry" />
        </mxCell>
        <mxCell id="QdudeDyhw6--TSKGOu7p-58" value="&lt;b&gt;&lt;font style=&quot;font-size: 24px;&quot;&gt;ClinicWave Local Development and Deployment Workflow&lt;/font&gt;&lt;/b&gt;" style="text;html=1;align=center;verticalAlign=middle;resizable=0;points=[];autosize=1;strokeColor=none;fillColor=none;" parent="1" vertex="1">
          <mxGeometry x="422.38" y="510" width="680" height="40" as="geometry" />
        </mxCell>
      </root>
    </mxGraphModel>
  </diagram>
  <diagram name="ClinicWave Production Development and Deployment Workflow" id="TfVD8Oxl-dYxt8xEM5-u">
    <mxGraphModel dx="1128" dy="871" grid="1" gridSize="10" guides="1" tooltips="1" connect="1" arrows="1" fold="1" page="1" pageScale="1" pageWidth="850" pageHeight="1100" math="0" shadow="0">
      <root>
        <mxCell id="83gLgwqaku1M9jHAZKv6-0" />
        <mxCell id="83gLgwqaku1M9jHAZKv6-1" parent="83gLgwqaku1M9jHAZKv6-0" />
        <mxCell id="83gLgwqaku1M9jHAZKv6-2" value="" style="edgeStyle=orthogonalEdgeStyle;rounded=0;orthogonalLoop=1;jettySize=auto;html=1;" edge="1" parent="83gLgwqaku1M9jHAZKv6-1" source="83gLgwqaku1M9jHAZKv6-3" target="83gLgwqaku1M9jHAZKv6-5">
          <mxGeometry relative="1" as="geometry" />
        </mxCell>
        <mxCell id="83gLgwqaku1M9jHAZKv6-3" value="" style="sketch=0;outlineConnect=0;fontColor=#232F3E;gradientColor=none;fillColor=#232F3D;strokeColor=none;dashed=0;verticalLabelPosition=bottom;verticalAlign=top;align=center;html=1;fontSize=12;fontStyle=0;aspect=fixed;pointerEvents=1;shape=mxgraph.aws4.source_code;" vertex="1" parent="83gLgwqaku1M9jHAZKv6-1">
          <mxGeometry x="146.5" y="237" width="57" height="78" as="geometry" />
        </mxCell>
        <mxCell id="83gLgwqaku1M9jHAZKv6-4" value="" style="edgeStyle=orthogonalEdgeStyle;rounded=0;orthogonalLoop=1;jettySize=auto;html=1;" edge="1" parent="83gLgwqaku1M9jHAZKv6-1" source="83gLgwqaku1M9jHAZKv6-5" target="83gLgwqaku1M9jHAZKv6-7">
          <mxGeometry relative="1" as="geometry" />
        </mxCell>
        <mxCell id="83gLgwqaku1M9jHAZKv6-5" value="" style="shape=image;html=1;verticalAlign=top;verticalLabelPosition=bottom;labelBackgroundColor=#ffffff;imageAspect=0;aspect=fixed;image=https://cdn1.iconfinder.com/data/icons/picons-social/57/github_rounded-128.png" vertex="1" parent="83gLgwqaku1M9jHAZKv6-1">
          <mxGeometry x="320" y="232" width="88" height="88" as="geometry" />
        </mxCell>
        <mxCell id="83gLgwqaku1M9jHAZKv6-6" value="" style="edgeStyle=orthogonalEdgeStyle;rounded=0;orthogonalLoop=1;jettySize=auto;html=1;" edge="1" parent="83gLgwqaku1M9jHAZKv6-1" source="83gLgwqaku1M9jHAZKv6-7" target="83gLgwqaku1M9jHAZKv6-10">
          <mxGeometry relative="1" as="geometry" />
        </mxCell>
        <mxCell id="83gLgwqaku1M9jHAZKv6-7" value="" style="shape=image;imageAspect=0;aspect=fixed;verticalLabelPosition=bottom;verticalAlign=top;image=https://sg.mirror.servanamanaged.com/jenkins/art/jenkins-logo/logo.svg;" vertex="1" parent="83gLgwqaku1M9jHAZKv6-1">
          <mxGeometry x="520" y="230" width="66.64" height="92" as="geometry" />
        </mxCell>
        <mxCell id="83gLgwqaku1M9jHAZKv6-8" value="Source Code" style="text;html=1;align=center;verticalAlign=middle;resizable=0;points=[];autosize=1;strokeColor=none;fillColor=none;" vertex="1" parent="83gLgwqaku1M9jHAZKv6-1">
          <mxGeometry x="130" y="347" width="90" height="30" as="geometry" />
        </mxCell>
        <mxCell id="83gLgwqaku1M9jHAZKv6-9" style="edgeStyle=orthogonalEdgeStyle;rounded=0;orthogonalLoop=1;jettySize=auto;html=1;entryX=0;entryY=0.5;entryDx=0;entryDy=0;" edge="1" parent="83gLgwqaku1M9jHAZKv6-1" source="83gLgwqaku1M9jHAZKv6-10" target="83gLgwqaku1M9jHAZKv6-13">
          <mxGeometry relative="1" as="geometry" />
        </mxCell>
        <mxCell id="83gLgwqaku1M9jHAZKv6-10" value="" style="image;sketch=0;aspect=fixed;html=1;points=[];align=center;fontSize=12;image=img/lib/mscae/Docker.svg;" vertex="1" parent="83gLgwqaku1M9jHAZKv6-1">
          <mxGeometry x="720" y="241.25" width="84.76" height="69.5" as="geometry" />
        </mxCell>
        <mxCell id="83gLgwqaku1M9jHAZKv6-11" value="Docker Image" style="text;html=1;align=center;verticalAlign=middle;resizable=0;points=[];autosize=1;strokeColor=none;fillColor=none;" vertex="1" parent="83gLgwqaku1M9jHAZKv6-1">
          <mxGeometry x="712.38" y="347" width="100" height="30" as="geometry" />
        </mxCell>
        <mxCell id="83gLgwqaku1M9jHAZKv6-12" value="Read Dockerfile, build the application and&amp;nbsp;&lt;div&gt;create Docker image&lt;/div&gt;" style="text;html=1;align=center;verticalAlign=middle;resizable=0;points=[];autosize=1;strokeColor=none;fillColor=none;" vertex="1" parent="83gLgwqaku1M9jHAZKv6-1">
          <mxGeometry x="428.32" y="347" width="250" height="40" as="geometry" />
        </mxCell>
        <mxCell id="83gLgwqaku1M9jHAZKv6-13" value="" style="shape=image;imageAspect=0;aspect=fixed;verticalLabelPosition=bottom;verticalAlign=top;image=https://upload.wikimedia.org/wikipedia/commons/2/24/Ansible_logo.svg;" vertex="1" parent="83gLgwqaku1M9jHAZKv6-1">
          <mxGeometry x="1020" y="231" width="73.15" height="90" as="geometry" />
        </mxCell>
        <mxCell id="83gLgwqaku1M9jHAZKv6-15" value="Push&lt;span style=&quot;background-color: initial;&quot;&gt;&amp;nbsp;Docker image to Ansible&lt;/span&gt;" style="text;html=1;align=center;verticalAlign=middle;resizable=0;points=[];autosize=1;strokeColor=none;fillColor=none;" vertex="1" parent="83gLgwqaku1M9jHAZKv6-1">
          <mxGeometry x="820" y="230" width="180" height="30" as="geometry" />
        </mxCell>
        <mxCell id="83gLgwqaku1M9jHAZKv6-19" value="GitHub" style="text;html=1;align=center;verticalAlign=middle;resizable=0;points=[];autosize=1;strokeColor=none;fillColor=none;" vertex="1" parent="83gLgwqaku1M9jHAZKv6-1">
          <mxGeometry x="334" y="347" width="60" height="30" as="geometry" />
        </mxCell>
        <mxCell id="83gLgwqaku1M9jHAZKv6-22" value="&lt;b&gt;&lt;font style=&quot;font-size: 24px;&quot;&gt;ClinicWave Production Development and Deployment Workflow&lt;/font&gt;&lt;/b&gt;" style="text;html=1;align=center;verticalAlign=middle;resizable=0;points=[];autosize=1;strokeColor=none;fillColor=none;" vertex="1" parent="83gLgwqaku1M9jHAZKv6-1">
          <mxGeometry x="387.38" y="510" width="750" height="40" as="geometry" />
        </mxCell>
        <mxCell id="ci8QUIItM-y4Iuy6wkpK-11" value="" style="whiteSpace=wrap;html=1;verticalAlign=top;" vertex="1" parent="83gLgwqaku1M9jHAZKv6-1">
          <mxGeometry x="1230" y="106" width="350" height="340" as="geometry" />
        </mxCell>
        <mxCell id="ci8QUIItM-y4Iuy6wkpK-14" value="" style="shape=image;imageAspect=0;aspect=fixed;verticalLabelPosition=bottom;verticalAlign=top;image=https://www.vectorlogo.zone/logos/google_cloud/google_cloud-ar21.svg;" vertex="1" parent="83gLgwqaku1M9jHAZKv6-1">
          <mxGeometry x="1345" y="377" width="120" height="60" as="geometry" />
        </mxCell>
        <mxCell id="ci8QUIItM-y4Iuy6wkpK-16" value="" style="whiteSpace=wrap;html=1;verticalAlign=top;" vertex="1" parent="83gLgwqaku1M9jHAZKv6-1">
          <mxGeometry x="1300" y="127" width="210" height="236" as="geometry" />
        </mxCell>
        <mxCell id="ci8QUIItM-y4Iuy6wkpK-17" value="" style="shape=image;imageAspect=0;aspect=fixed;verticalLabelPosition=bottom;verticalAlign=top;image=https://upload.wikimedia.org/wikipedia/commons/3/39/Kubernetes_logo_without_workmark.svg;" vertex="1" parent="83gLgwqaku1M9jHAZKv6-1">
          <mxGeometry x="1350.94" y="192.5" width="108.12" height="105" as="geometry" />
        </mxCell>
        <mxCell id="ci8QUIItM-y4Iuy6wkpK-18" value="Kubernetes Cluster" style="text;html=1;align=center;verticalAlign=middle;resizable=0;points=[];autosize=1;strokeColor=none;fillColor=none;" vertex="1" parent="83gLgwqaku1M9jHAZKv6-1">
          <mxGeometry x="1340" y="321" width="130" height="30" as="geometry" />
        </mxCell>
        <mxCell id="3CKHz9aE1k4nwjLSBclu-0" value="services.yml&lt;br&gt;deployment.yml" style="text;html=1;align=center;verticalAlign=middle;resizable=0;points=[];autosize=1;strokeColor=none;fillColor=none;" vertex="1" parent="83gLgwqaku1M9jHAZKv6-1">
          <mxGeometry x="1110" y="225" width="110" height="40" as="geometry" />
        </mxCell>
        <mxCell id="3CKHz9aE1k4nwjLSBclu-3" style="edgeStyle=orthogonalEdgeStyle;rounded=0;orthogonalLoop=1;jettySize=auto;html=1;entryX=0;entryY=0.631;entryDx=0;entryDy=0;entryPerimeter=0;" edge="1" parent="83gLgwqaku1M9jHAZKv6-1" source="83gLgwqaku1M9jHAZKv6-13" target="ci8QUIItM-y4Iuy6wkpK-16">
          <mxGeometry relative="1" as="geometry" />
        </mxCell>
      </root>
    </mxGraphModel>
  </diagram>
</mxfile>
